<svg width="43"
    height="43"
    viewBox="0 0 43 43"
    fill="none"
    xmlns="http://www.w3.org/2000/svg">
    <circle cx="21.5" cy="21.5" r="21.5" fill="#2C449C"/>
    <path d="M22 12c-2.445 0-2.75.011-3.71.054-.959.045-1.611.196-2.185.418a4.407 4.407 0 00-1.595 1.039c-.5.5-.809 1.002-1.037 1.594-.223.574-.375 1.226-.419 2.185-.045.96-.054 1.265-.054 3.71 0 2.445.011 2.75.054 3.71.045.958.196 1.611.418 2.185.23.591.538 1.094 1.039 1.595.5.499 1.002.809 1.594 1.038.575.222 1.227.374 2.185.418.96.045 1.265.054 3.71.054 2.445 0 2.75-.011 3.71-.054.958-.045 1.611-.197 2.185-.419a4.423 4.423 0 001.595-1.038c.499-.5.809-1 1.038-1.594.222-.574.374-1.227.418-2.185.045-.96.054-1.265.054-3.71 0-2.445-.011-2.75-.054-3.71-.045-.958-.197-1.612-.419-2.185a4.417 4.417 0 00-1.038-1.595c-.5-.5-1-.809-1.594-1.037-.574-.223-1.227-.375-2.185-.419C24.75 12.009 24.445 12 22 12zm0 1.62c2.402 0 2.689.012 3.637.053.878.041 1.354.187 1.67.312.422.162.72.357 1.037.671.314.316.51.615.672 1.036.123.317.27.793.31 1.67.043.95.052 1.235.052 3.638 0 2.403-.01 2.689-.055 3.637-.046.878-.192 1.354-.316 1.67-.168.422-.359.72-.674 1.037-.314.314-.618.51-1.035.672-.315.123-.799.27-1.676.31-.956.043-1.237.052-3.645.052s-2.689-.01-3.644-.055c-.878-.046-1.362-.192-1.677-.316a2.786 2.786 0 01-1.034-.674 2.733 2.733 0 01-.675-1.035c-.124-.315-.27-.799-.315-1.676-.034-.945-.046-1.237-.046-3.633 0-2.397.012-2.69.046-3.646.046-.878.191-1.36.315-1.675.158-.428.36-.72.675-1.036a2.66 2.66 0 011.034-.674c.315-.124.789-.27 1.666-.316.956-.033 1.238-.044 3.644-.044l.034.022zm0 2.758a4.621 4.621 0 100 9.243 4.621 4.621 0 000-9.242zM22 24a3 3 0 110-6 3 3 0 110 6zm5.884-7.804a1.08 1.08 0 01-2.16 0 1.08 1.08 0 012.16 0z" fill="#fff"/>
</svg>