<svg width="43"
    height="43"
    viewBox="0 0 43 43"
    fill="none"
    xmlns="http://www.w3.org/2000/svg">
    <circle cx="21.5" cy="21.5" r="21.5" fill="#2C449C"/>
    <path d="M31.959 15.905a9.211 9.211 0 01-2.472.636c.887-.501 1.57-1.291 1.893-2.233a9.264 9.264 0 01-2.736.97A4.424 4.424 0 0025.502 14c-2.378 0-4.305 1.807-4.305 4.033 0 .32.04.627.11.922-3.578-.158-6.75-1.77-8.872-4.204a3.768 3.768 0 00-.583 2.03c0 1.402.761 2.635 1.915 3.36a4.513 4.513 0 01-1.95-.506v.05c0 1.956 1.482 3.588 3.453 3.96a4.643 4.643 0 01-1.936.069c.553 1.602 2.14 2.77 4.029 2.803a9.006 9.006 0 01-5.34 1.726c-.34 0-.68-.019-1.023-.055A12.847 12.847 0 0017.612 30c7.922 0 12.249-6.148 12.249-11.472 0-.171 0-.344-.013-.516A8.416 8.416 0 0032 15.922l-.041-.017z" fill="#fff"/>
</svg>