<svg width="43"
    height="43"
    viewBox="0 0 43 43"
    fill="none"
    xmlns="http://www.w3.org/2000/svg">
    <circle cx="21.5" cy="21.5" r="21.5" fill="#2C449C"/><g clip-path="url(#clip0)">
    <path d="M32.526 15.504a2.872 2.872 0 00-2.027-2.015c-1.8-.489-9-.489-9-.489s-7.198 0-8.998.47a2.93 2.93 0 00-2.027 2.034C10 17.292 10 21 10 21s0 3.727.474 5.496a2.873 2.873 0 002.027 2.015c1.819.489 9 .489 9 .489s7.199 0 8.998-.47a2.873 2.873 0 002.028-2.015C33 24.727 33 21.02 33 21.02s.02-3.727-.474-5.515zm-13.318 8.922v-6.852L25.194 21l-5.986 3.426z" fill="#fff"/></g><defs><clipPath id="clip0"><path fill="#fff" transform="translate(10 13)" d="M0 0h23v16H0z"/></clipPath></defs>
</svg>